<?xml version="1.0" standalone="no"?>
<!DOCTYPE svg PUBLIC "-//W3C//DTD SVG 20010904//EN"
 "http://www.w3.org/TR/2001/REC-SVG-20010904/DTD/svg10.dtd">
<svg version="1.0" xmlns="http://www.w3.org/2000/svg"
 width="280.000000pt" height="280.000000pt" viewBox="0 0 280.000000 280.000000"
 preserveAspectRatio="xMidYMid meet">
<metadata>
Created by potrace 1.11, written by Peter Selinger 2001-2013
</metadata>
<g transform="translate(0.000000,280.000000) scale(0.100000,-0.100000)"
fill="#000000" stroke="none">
<path d="M1201 2687 c-58 -9 -145 -31 -195 -48 -93 -31 -238 -97 -244 -111 -2
-4 -8 -8 -14 -8 -23 0 -179 -120 -258 -199 -177 -177 -286 -366 -350 -608 -39
-145 -24 -204 53 -206 47 -1 74 24 82 76 38 227 180 488 352 647 187 173 395
269 663 306 40 6 211 5 260 -2 69 -8 210 -45 260 -66 25 -11 61 -26 80 -34 51
-22 190 -107 190 -116 0 -4 6 -8 13 -8 16 0 161 -140 213 -205 21 -27 41 -52
44 -55 5 -5 13 -18 65 -110 50 -89 76 -158 107 -280 17 -69 36 -122 48 -134
26 -27 74 -25 106 5 24 22 25 29 20 79 -8 75 -9 81 -51 208 -87 262 -270 500
-507 660 -42 29 -81 52 -87 52 -5 0 -11 4 -13 8 -5 13 -131 69 -225 100 -195
65 -417 83 -612 49z"/>
<path d="M1218 2355 c-14 -13 -33 -46 -42 -73 -19 -55 -46 -84 -127 -135 -58
-37 -62 -37 -189 -23 -34 4 -89 -12 -123 -36 -75 -54 -81 -186 -10 -250 108
-98 272 -28 290 122 8 68 54 122 142 166 51 26 67 30 105 24 63 -9 109 11 130
58 18 43 16 77 -9 119 -34 58 -119 72 -167 28z"/>
<path d="M1622 2285 c-61 -26 -92 -78 -92 -154 0 -69 -11 -92 -74 -155 l-55
-54 -83 1 c-74 2 -89 -1 -133 -26 -73 -40 -108 -100 -111 -191 -2 -56 2 -78
20 -115 29 -56 48 -74 106 -100 66 -29 145 -22 204 18 77 53 99 52 263 -21 23
-10 47 -18 53 -18 12 0 36 -51 43 -91 23 -126 137 -214 263 -203 102 10 181
73 209 168 20 66 19 95 -5 160 -34 90 -114 147 -214 152 -65 3 -102 -9 -170
-55 -58 -40 -103 -40 -205 -1 -91 35 -117 60 -136 126 -7 27 -18 63 -23 79
-12 40 1 82 39 128 41 50 92 74 149 72 27 -2 59 4 80 15 31 16 40 16 74 5 61
-21 109 -66 128 -121 25 -70 60 -96 121 -91 81 7 130 73 109 146 -22 71 -83
98 -165 74 -60 -18 -104 -5 -152 43 -25 25 -35 46 -41 81 -8 57 -34 97 -77
119 -42 22 -85 25 -125 9z"/>
<path d="M1728 1892 c-64 -8 -91 -106 -43 -158 18 -20 34 -26 66 -27 84 -2
130 100 71 159 -14 13 -27 24 -31 25 -3 0 -13 1 -21 3 -8 1 -27 0 -42 -2z"/>
<path d="M483 1758 c-63 -17 -95 -102 -58 -155 33 -47 116 -38 148 16 45 77
-10 161 -90 139z"/>
<path d="M2294 1732 c-46 -31 -25 -109 34 -126 25 -7 36 -6 47 5 39 39 9 129
-43 129 -15 0 -32 -4 -38 -8z"/>
<path d="M734 1580 c-48 -22 -100 -78 -121 -129 -36 -85 -6 -201 67 -263 94
-81 215 -77 324 11 21 17 46 31 56 31 28 0 210 -67 229 -84 25 -23 66 -150 54
-169 -4 -8 -28 -37 -53 -64 -25 -28 -63 -71 -84 -97 -47 -57 -74 -69 -125 -57
-53 12 -92 3 -127 -27 -53 -47 -69 -110 -47 -177 26 -75 92 -125 166 -125 105
0 171 103 138 216 -6 20 -5 38 3 52 19 35 179 203 202 212 11 5 43 4 70 -1
102 -19 176 11 227 92 52 85 37 189 -37 264 -83 82 -186 84 -286 5 -51 -40
-77 -38 -201 14 -93 40 -107 56 -129 142 -33 136 -199 214 -326 154z"/>
<path d="M160 1278 c-48 -25 -51 -48 -25 -183 17 -92 97 -283 157 -380 128
-205 332 -389 546 -494 46 -22 86 -41 90 -42 4 -1 17 -5 30 -10 13 -5 63 -20
110 -34 81 -22 120 -30 197 -41 45 -6 239 -6 277 0 18 3 51 8 73 11 22 3 67
12 100 21 296 75 538 233 737 481 133 168 271 521 244 628 -10 37 -65 62 -104
46 -35 -15 -47 -37 -62 -113 -17 -85 -54 -197 -90 -269 -73 -146 -208 -314
-316 -395 -21 -16 -41 -32 -44 -35 -10 -11 -164 -102 -195 -114 -16 -7 -39
-16 -50 -20 -11 -5 -22 -9 -25 -10 -3 0 -34 -11 -70 -23 -36 -12 -98 -28 -138
-35 -83 -16 -275 -20 -342 -7 -25 4 -62 11 -84 14 -21 4 -42 9 -47 12 -5 3
-21 7 -35 10 -27 5 -158 56 -208 80 -36 19 -135 83 -154 102 -7 6 -17 12 -20
12 -12 0 -167 152 -201 197 -62 82 -98 139 -138 226 -23 48 -39 87 -36 87 3 0
1 6 -5 13 -11 13 -57 177 -62 222 -4 40 -67 65 -110 43z"/>
<path d="M2214 1146 c-45 -45 -50 -102 -11 -143 50 -55 146 -2 152 84 6 89
-76 124 -141 59z"/>
<path d="M1042 1070 c-35 -22 -39 -27 -46 -65 -6 -34 16 -80 46 -96 34 -18 88
-12 114 12 45 42 39 112 -11 145 -36 24 -68 25 -103 4z"/>
<path d="M1879 1035 c-30 -16 -47 -51 -54 -107 -9 -67 -48 -123 -127 -182 -29
-22 -48 -28 -90 -28 -102 0 -164 -33 -199 -105 -35 -72 -16 -140 55 -197 33
-27 46 -31 95 -31 108 1 177 76 173 189 -2 87 23 131 114 203 30 24 55 34 90
37 27 2 57 7 66 11 28 11 58 69 58 110 0 30 -8 45 -39 76 -32 32 -45 39 -77
39 -22 -1 -51 -7 -65 -15z"/>
<path d="M622 1009 c-71 -28 -91 -121 -41 -194 56 -81 186 -89 225 -13 57 111
-69 254 -184 207z"/>
</g>
</svg>
